<svg xmlns="http://www.w3.org/2000/svg" viewBox="0 0 68.71 62.34"><defs><style>.cls-1{fill:#1d1d1b;}</style></defs><g id="Ebene_2" data-name="Ebene 2"><g id="Ebene_1-2" data-name="Ebene 1"><path class="cls-1" d="M54.52,29.75c6.91-1.32,11-7,11-13.81C65.52,5.05,57.38,0,46.4,0H0V62.34H48.52c12.4,0,20.19-4.87,20.19-16.65C68.69,37.1,63.2,30.73,54.52,29.75ZM6,5.31H45c8.77,0,14.17,3.19,14.17,11,0,8.5-7.35,11.34-14.52,11.34H6ZM48.5,57H6V32.94H43.55c10.62,0,18.77,2.39,18.77,12.75C62.32,53.39,56.61,57,48.5,57Z"/></g></g></svg>