<svg xmlns="http://www.w3.org/2000/svg" viewBox="0 0 221.08 64.46"><defs><style>.cls-1{fill:#1d1d1b;}</style></defs><g id="Ebene_2" data-name="Ebene 2"><g id="Ebene_1-2" data-name="Ebene 1"><polygon class="cls-1" points="58.44 28.69 6.02 28.69 6.02 1.06 0 1.06 0 63.4 6.02 63.4 6.02 34 58.44 34 58.44 63.4 64.46 63.4 64.46 1.06 58.44 1.06 58.44 28.69"/><path class="cls-1" d="M109,34H136.4c0,17.09-13.55,25.15-27.45,25.15-15.85,0-28.69-9.83-28.69-26.92S93.1,5.31,109,5.31c11.33,0,20.54,4.78,25.23,13.55l5.31-3.1C134,5.58,122.94,0,109,0,89,0,73.88,12,73.88,32.23S89,64.46,109,64.46c10.09,0,21.42-3.54,26.92-12.48V63.4h5.66V28.69H109Z"/><path class="cls-1" d="M206.91,30.81c6.91-1.32,11-7,11-13.81,0-10.89-8.14-15.94-19.12-15.94h-46.4V63.4h48.52c12.4,0,20.19-4.87,20.19-16.65C221.08,38.16,215.59,31.79,206.91,30.81ZM158.39,6.37h39c8.77,0,14.17,3.19,14.17,11,0,8.5-7.35,11.34-14.52,11.34H158.39Zm42.5,51.71h-42.5V34h37.55c10.62,0,18.77,2.39,18.77,12.75C214.71,54.45,209,58.08,200.89,58.08Z"/></g></g></svg>