<svg xmlns="http://www.w3.org/2000/svg" viewBox="0 0 211.59 91.28"><g id="Ebene_2" data-name="Ebene 2"><g id="Ebene_1-2" data-name="Ebene 1"><path class="cls-1" d="M8.52,85.44H4.81V73.7c0-1.34.44-2,2.51-2.14v-.69H.39v.69c1.85.09,2.37.78,2.37,2.14v9.87c0,1.36-.52,2.05-2.37,2.14v.69H12.2V81.61h-.66C11.28,84.64,10.86,85.44,8.52,85.44Z"/><path class="cls-1" d="M19,84.91c-2.46,0-3.71-2.39-3.71-5v0h7.33c0-2.64-1.27-4.76-4.08-4.76-3.27,0-4.91,3-4.91,6.05,0,3.32,1.64,5.57,4.74,5.57,2.83,0,4.32-2.22,4.64-4.47h-.59C21.67,84.18,20.5,84.91,19,84.91Zm-.92-9c1.56,0,2.39,1.49,2.39,3h-5C15.6,77.32,16.55,75.93,18,75.93Z"/><path class="cls-1" d="M65,84.37l-3.51-.1c-.73,0-1.1-.24-1.1-.66s.29-.68.78-1.17a4.77,4.77,0,0,0,1.42.17c2.63,0,4.29-1.63,4.29-3.85A3.61,3.61,0,0,0,66,76.32h1.86v-.86h-3a4.72,4.72,0,0,0-2-.39c-2.61,0-4.27,1.64-4.27,3.86a3.35,3.35,0,0,0,1.83,3.24c-1.08.88-1.71,1.69-1.71,2.37a1.23,1.23,0,0,0,1,1.22,3.68,3.68,0,0,0-1.86,2.88c0,1.37,1.24,2.64,4.17,2.64S68,90,68,86.94C68,85.18,67,84.42,65,84.37Zm-2.32-8.54c1.57,0,2.35,1.36,2.35,3.22,0,1.66-.69,2.81-2.15,2.81s-2.32-1.34-2.32-3.2C60.53,77,61.19,75.83,62.65,75.83Zm.42,14.08c-2.27,0-3.56-.78-3.56-2a2.73,2.73,0,0,1,1-2,4,4,0,0,0,.66,0l3.44.1c1.93.07,2.51.36,2.51,1.27C67.07,89,65,89.91,63.07,89.91Z"/><path class="cls-1" d="M42.35,78.86H43c.1-1.86.64-2.59,2.2-2.59h2.93L41.76,86v.39h8.79V82.81h-.61c-.1,2-.66,2.78-2.22,2.78H44.18l6.37-9.74v-.39h-8.2Z"/><path class="cls-1" d="M27.61,84.32V75.07l-3.62,1v.51c1.44.07,1.76.42,1.76,1.46v6.3c0,1.05-.37,1.39-1.76,1.47v.61h5.27v-.61C27.92,85.71,27.61,85.37,27.61,84.32Z"/><path class="cls-1" d="M36.71,75.07a4.63,4.63,0,0,0-3.3,1.73V75.07l-3.61,1v.51c1.44.07,1.76.42,1.76,1.46V88.91c0,1-.37,1.39-1.76,1.46V91h5.76v-.62c-1.68-.12-2.15-.43-2.15-1.46V86.13a5,5,0,0,0,2.25.56c2.93,0,5.13-2.34,5.13-6.35C40.79,77.46,39.44,75.07,36.71,75.07Zm-.93,10.77a2.28,2.28,0,0,1-2.37-2.23v-6a3.44,3.44,0,0,1,2.37-1c2.32,0,3.08,2.34,3.08,4.61C38.86,83.25,38.12,85.84,35.78,85.84Z"/><path class="cls-1" d="M55.77,84.32V75.07l-3.61,1v.51c1.44.07,1.76.42,1.76,1.46v6.3c0,1.05-.37,1.39-1.76,1.47v.61h5.27v-.61C56.09,85.71,55.77,85.37,55.77,84.32Z"/><path class="cls-1" d="M56.11,71.39a1.27,1.27,0,1,0-1.27,1.27A1.23,1.23,0,0,0,56.11,71.39Z"/><path class="cls-1" d="M26.68,70.12A1.27,1.27,0,1,0,28,71.39,1.23,1.23,0,0,0,26.68,70.12Z"/><path class="cls-1" d="M154.6,61.61c-2.46,0-3.71-2.39-3.71-5v0h7.32c0-2.63-1.27-4.76-4.08-4.76-3.27,0-4.9,3-4.9,6.06,0,3.32,1.63,5.56,4.73,5.56,2.84,0,4.32-2.22,4.64-4.47H158C157.31,60.88,156.14,61.61,154.6,61.61Zm-.93-9c1.56,0,2.39,1.49,2.39,3h-5C151.23,54,152.18,52.63,153.67,52.63Z"/><path class="cls-1" d="M183.74,54V51.77l-3.61,1v.51c1.41.07,1.76.44,1.76,1.47V61c0,1-.37,1.4-1.76,1.47v.61h5.76v-.61c-1.68-.12-2.15-.44-2.15-1.47V54.73a4,4,0,0,1,2.32-1.08,3.55,3.55,0,0,1,1.37.29l.36-2a3.35,3.35,0,0,0-1-.2C185.4,51.77,184.45,52.8,183.74,54Z"/><path class="cls-1" d="M201.27,56.73l-.66-.29c-1.15-.52-2.17-1-2.17-2.06s.56-1.78,2.07-1.78c2.07,0,2.25,1.25,2.37,2.69h.63V52.34a6.6,6.6,0,0,0-2.88-.57c-2.14,0-3.85,1.13-3.85,3.25,0,1.51,1.17,2.44,2.63,3.1l.66.29c1.2.54,2.27,1,2.27,2.08,0,1.36-.68,2.07-2.29,2.07-2.15,0-2.59-1-2.64-2.66h-.63v2.83a6.8,6.8,0,0,0,3.17.66c2.59,0,4.17-1.44,4.17-3.64C204.12,58.17,202.78,57.41,201.27,56.73Z"/><path class="cls-1" d="M193.55,62.07c-.78,0-1.36-.34-1.36-1.68V53h3v-.86h-3V48.65h-.64c-.31,1.93-.8,3.44-3,3.76V53h1.78v7.64c0,2.05.95,2.73,2.42,2.73a3.06,3.06,0,0,0,2.95-1.83l-.27-.32A2.88,2.88,0,0,1,193.55,62.07Z"/><path class="cls-1" d="M41.93,63.39a4.87,4.87,0,0,0,3.22-1.61v1.51l3.49-.68V62.1C47.3,62,47,61.88,47,60.32V46.6l-3.61,1v.51c1.44.07,1.78.41,1.78,1.46v2.88a3.84,3.84,0,0,0-2.24-.66c-2.86,0-5.15,2.15-5.15,6.25C37.76,61.1,39.22,63.39,41.93,63.39Zm.83-10.76a2.34,2.34,0,0,1,2.39,2.56V61a3.63,3.63,0,0,1-2.39.93c-2.24,0-3-2.35-3-4.61S40.42,52.63,42.76,52.63Z"/><path class="cls-1" d="M176.66,59.73l-5.1-12.25h-.24l-5.1,12.25c-1,2.34-1.39,2.61-2.54,2.69v.68h4.76v-.68c-1.78-.08-2-.64-1.17-2.69l.46-1.15h6.15l.49,1.15c.83,2.05.78,2.61-1.17,2.69v.68h6v-.68C178.1,62.29,177.64,62.1,176.66,59.73Zm-8.52-2.12,2.67-6.42,2.65,6.42Z"/><path class="cls-1" d="M4.76,62.42c-1.78-.08-2-.64-1.17-2.69l.46-1.15H10.2l.49,1.15c.83,2.05.78,2.61-1.17,2.69v.68h6v-.68c-1.1-.13-1.56-.32-2.54-2.69L7.88,47.48H7.64L2.54,59.73c-1,2.34-1.39,2.61-2.54,2.69v.68H4.76ZM7.13,51.19l2.66,6.42H4.47Z"/><path class="cls-1" d="M20.87,52.63c1.63,0,2.07,1.44,2.07,2.93h2a3.53,3.53,0,0,0-3.8-3.79c-3.2,0-5.13,2.71-5.13,6.15s1.73,5.47,4.83,5.47c2.71,0,4.13-2.22,4.45-4.47h-.59c-.71,2-1.9,2.69-3.3,2.69-2.46,0-3.66-2.2-3.66-4.52S18.82,52.63,20.87,52.63Z"/><path class="cls-1" d="M35.07,63.29a2.4,2.4,0,0,0,1.59-.61v-.51h-.59c-.63,0-.85-.24-.85-.9v-6.2c0-2.3-1.37-3.3-3.71-3.3-2.49,0-3.9,1.34-4,3.49h1.85c0-1.68.61-2.68,2.05-2.68s2,.9,2,2.56v1.59l-1.76.19c-2.78.32-4.71,1.1-4.71,3.52a2.82,2.82,0,0,0,3.05,3,4.07,4.07,0,0,0,3.42-1.85v.22C33.37,63.05,34.29,63.29,35.07,63.29ZM30.68,62a1.82,1.82,0,0,1-1.88-2c0-1.56,1.22-2.08,3-2.27l1.59-.17V60C33.37,61.36,31.61,62,30.68,62Z"/><path class="cls-1" d="M147,61V55.26c0-2.17-1-3.49-3-3.49-1.49,0-2.62.76-3.66,2.42h0V51.77l-3.61,1v.51c1.44.07,1.76.42,1.76,1.47V61c0,1-.37,1.4-1.76,1.47v.61h5.4v-.61c-1.45-.07-1.79-.42-1.79-1.47V55.17a3.57,3.57,0,0,1,2.86-1.91c1.24,0,2,.64,2,2.08V61c0,1-.36,1.4-1.75,1.47v.61h5.27v-.61C147.4,62.42,147,62.07,147,61Z"/><path class="cls-1" d="M99.24,51.77c-3.22,0-5.32,2.59-5.32,6.06s1.88,5.56,4.93,5.56c3.22,0,5.3-2.59,5.3-6S102.27,51.77,99.24,51.77Zm-.1,10.77c-2,0-3.07-2.15-3.07-5.1,0-2.71.66-4.81,2.88-4.81,2,0,3,2.14,3,5.1C102,60.44,101.34,62.54,99.14,62.54Z"/><path class="cls-1" d="M85.26,52.77c1.58.08,1.78.44,1.36,1.49l-2.53,6.23-2.64-6.23c-.44-1-.24-1.41,1.39-1.49v-.61H77.76v.61c1,.08,1.25.49,1.66,1.49l3.69,8.62-.34.83c-.59,1.44-1.1,2.29-2.39,2.29A4.23,4.23,0,0,1,79,65.76l-.29,1.78a5.7,5.7,0,0,0,1.22.15c1.88,0,2.64-1.25,3.54-3.52l4-9.91c.39-1,.68-1.41,1.66-1.49v-.61H85.26Z"/><path class="cls-1" d="M134.22,48.09A1.27,1.27,0,1,0,133,49.36,1.23,1.23,0,0,0,134.22,48.09Z"/><path class="cls-1" d="M107.08,52v.14h-1.76V53h1.76v8c0,1-.37,1.4-1.76,1.47v.61h5.76v-.61c-1.68-.12-2.15-.42-2.15-1.47V53h2.86v-.86h-3.08a5.25,5.25,0,0,1-.44-1.88c0-1.49.93-2,2.18-2a6.74,6.74,0,0,1,1.51.2l.34-1.73a3.5,3.5,0,0,0-1.07-.15C108.69,46.6,107.08,48.7,107.08,52Z"/><path class="cls-1" d="M117.65,48.26c1.85.1,2.37.78,2.37,2.15v9.86c0,1.36-.52,2-2.37,2.15v.68h7.15v-.68c-2.17-.13-2.74-.81-2.74-2.15V55.63h2c1.39,0,2,.56,2,2.54h.68V52.26h-.68c-.08,1.88-.66,2.44-2,2.44h-2V48.53h3.42c2.32,0,2.93.73,3.13,3.63h.68V47.58H117.65Z"/><path class="cls-1" d="M133.88,61V51.77l-3.61,1v.51c1.44.07,1.75.42,1.75,1.47V61c0,1-.36,1.4-1.75,1.47v.61h5.27v-.61C134.2,62.42,133.88,62.07,133.88,61Z"/><path class="cls-1" d="M76.49,61V55.26c0-2.17-.95-3.49-2.9-3.49-1.49,0-2.64.76-3.69,2.42a2.64,2.64,0,0,0-2.8-2.42c-1.47,0-2.54.73-3.59,2.3v-2.3l-3.61,1v.51c1.44.07,1.75.42,1.75,1.47V61c0,1-.36,1.4-1.75,1.47v.61h5.27v-.61c-1.34-.07-1.66-.42-1.66-1.47V55a3.49,3.49,0,0,1,2.76-1.73c1.24,0,1.88.68,1.88,2.08V61c0,1-.32,1.4-1.66,1.47v.61h5.17v-.61C70.32,62.42,70,62.07,70,61V55a3.53,3.53,0,0,1,2.76-1.76c1.24,0,1.88.68,1.88,2.08V61c0,1-.32,1.4-1.66,1.47v.61h5.17v-.61C76.86,62.42,76.49,62.07,76.49,61Z"/><path class="cls-1" d="M58.33,58.92c-.7,2-1.87,2.69-3.41,2.69-2.47,0-3.71-2.39-3.71-5v0h7.32c0-2.63-1.27-4.76-4.08-4.76-3.27,0-4.9,3-4.9,6.06,0,3.32,1.63,5.56,4.73,5.56,2.83,0,4.32-2.22,4.64-4.47ZM54,52.63c1.56,0,2.39,1.49,2.39,3h-5C51.55,54,52.5,52.63,54,52.63Z"/><path class="cls-1" d="M113.4,37V28.47l-3.64.66v.52c1.37.07,1.78.21,1.78,1.78v5.44a3.48,3.48,0,0,1-2.75,1.73c-1.25,0-2-.63-2-2.07V28.47l-3.52.66v.52c1.35.07,1.67.21,1.67,1.78V36.6c0,2.17,1,3.49,3,3.49,1.46,0,2.53-.73,3.58-2.29V40l3.52-.69V38.8C113.67,38.73,113.4,38.58,113.4,37Z"/><path class="cls-1" d="M43,39.12v.68h7c3,0,5.86-1.32,5.86-4.56,0-2.27-1.63-3.3-3.64-3.62a3.84,3.84,0,0,0,3-3.83c0-2.76-2.66-3.51-5.23-3.51H43V25c1.85.1,2.36.78,2.36,2.15V37C45.32,38.34,44.81,39,43,39.12Zm4.42-13.89H49.5c1.88,0,3.49.83,3.49,2.76a3.08,3.08,0,0,1-3.35,3.37H47.38Zm0,7h2.85c2,0,3.34,1,3.34,3.07,0,2.27-1.39,3.52-3.83,3.52H47.38Z"/><path class="cls-1" d="M141.59,40.09a3.06,3.06,0,0,0,2.95-1.83l-.27-.32a2.88,2.88,0,0,1-1.88.83c-.77,0-1.36-.34-1.36-1.68V29.72h3v-.86h-3V25.35h-.64c-.31,1.93-.8,3.44-3,3.76v.61h1.78v7.64C139.17,39.41,140.13,40.09,141.59,40.09Z"/><path class="cls-1" d="M133.73,33.43l-.66-.29c-1.15-.52-2.17-1-2.17-2.05s.56-1.79,2.07-1.79c2.08,0,2.25,1.25,2.37,2.69H136V29a6.65,6.65,0,0,0-2.88-.57c-2.15,0-3.86,1.13-3.86,3.25,0,1.51,1.17,2.44,2.64,3.1l.66.29c1.19.54,2.26,1,2.26,2.08,0,1.36-.68,2.07-2.29,2.07-2.15,0-2.59-1-2.64-2.66h-.63v2.83a6.85,6.85,0,0,0,3.17.66c2.59,0,4.18-1.44,4.18-3.64C136.59,34.87,135.24,34.11,133.73,33.43Z"/><path class="cls-1" d="M60.16,28.47l-3.51.66v.52c1.34.07,1.66.21,1.66,1.78V36.6c0,2.17,1,3.49,3,3.49,1.47,0,2.54-.73,3.59-2.29V40l3.52-.69V38.8c-1.4-.07-1.67-.22-1.67-1.78V28.47l-3.63.66v.52c1.37.07,1.78.21,1.78,1.78v5.44a3.49,3.49,0,0,1-2.76,1.73,1.8,1.8,0,0,1-2-2.07Z"/><path class="cls-1" d="M121.38,39.19c-1.44-.07-1.78-.42-1.78-1.46V31.87A3.55,3.55,0,0,1,122.45,30c1.25,0,2,.64,2,2.08v5.69c0,1-.37,1.39-1.76,1.46v.61H128v-.61c-1.27-.07-1.66-.42-1.66-1.46V32c0-2.17-1.05-3.49-3-3.49-1.5,0-2.62.76-3.67,2.42h0V28.47l-3.61,1V30c1.44.08,1.75.42,1.75,1.47v6.3c0,1-.36,1.39-1.75,1.46v.61h5.39Z"/><path class="cls-1" d="M74.05,29.33c1.64,0,2.08,1.44,2.08,2.93h2.05a3.53,3.53,0,0,0-3.81-3.79c-3.2,0-5.13,2.71-5.13,6.15s1.74,5.47,4.84,5.47c2.71,0,4.12-2.22,4.44-4.46h-.59c-.7,2-1.9,2.68-3.29,2.68-2.47,0-3.66-2.2-3.66-4.51S72,29.33,74.05,29.33Z"/><path class="cls-1" d="M36.69,38.8C35.34,38.73,35,38.58,35,37V23.3l-3.62,1v.51c1.44.07,1.78.41,1.78,1.46v2.88A3.84,3.84,0,0,0,31,28.47c-2.86,0-5.15,2.15-5.15,6.25,0,3.08,1.46,5.37,4.17,5.37a4.87,4.87,0,0,0,3.22-1.61V40l3.5-.69Zm-3.5-1.15a3.58,3.58,0,0,1-2.39.93c-2.24,0-3.05-2.35-3.05-4.61s.71-4.64,3.05-4.64a2.34,2.34,0,0,1,2.39,2.56Z"/><path class="cls-1" d="M16.4,30.89V28.47l-3.61,1V30c1.44.08,1.76.42,1.76,1.47v6.3c0,1-.37,1.39-1.76,1.46v.61h5.39v-.61c-1.44-.07-1.78-.42-1.78-1.46V31.87A3.57,3.57,0,0,1,19.26,30c1.24,0,2,.64,2,2.08v5.69c0,1-.36,1.39-1.75,1.46v.61h5.27v-.61c-1.27-.07-1.66-.42-1.66-1.46V32c0-2.17-1.05-3.49-3-3.49-1.49,0-2.62.76-3.66,2.42Z"/><path class="cls-1" d="M1.76,31.43V36.6c0,2.17,1.05,3.49,3,3.49,1.46,0,2.54-.73,3.59-2.29V40l3.51-.69V38.8c-1.39-.07-1.66-.22-1.66-1.78V28.47l-3.64.66v.52c1.37.07,1.79.21,1.79,1.78v5.44A3.49,3.49,0,0,1,5.59,38.6c-1.25,0-2-.63-2-2.07V28.47L.1,29.13v.52C1.44,29.72,1.76,29.86,1.76,31.43Z"/><path class="cls-1" d="M97.29,39.19c-1.34-.07-1.66-.42-1.66-1.46V34.06l4.44,5.74h3v-.61c-1.2-.27-1.51-.46-2.76-2l-3.13-3.88,2.67-2.49a4.32,4.32,0,0,1,2.73-1.36v-.62H98.49v.62c1.14,0,1.17.51.48,1.19l-1.76,1.69a7.93,7.93,0,0,1-1.58,1.26V23.3l-3.61,1v.51c1.44.07,1.76.41,1.76,1.46V37.73c0,1-.37,1.39-1.76,1.46v.61h5.27Z"/><path class="cls-1" d="M89.6,37.73V32c0-2.17-1-3.49-3-3.49-1.49,0-2.61.76-3.66,2.42h0V23.3l-3.61,1v.51c1.44.07,1.76.41,1.76,1.46V37.73c0,1-.37,1.39-1.76,1.46v.61h5.4v-.61c-1.45-.07-1.79-.42-1.79-1.46V31.87A3.57,3.57,0,0,1,85.77,30a1.81,1.81,0,0,1,2,2.08v5.69c0,1-.37,1.39-1.76,1.46v.61h5.27v-.61C90,39.12,89.6,38.77,89.6,37.73Z"/><path class="cls-1" d="M130.31,3.69a1.21,1.21,0,0,0,1.25-1.25,1.18,1.18,0,0,0-1.25-1.22,1.17,1.17,0,0,0-1.22,1.22A1.19,1.19,0,0,0,130.31,3.69Z"/><path class="cls-1" d="M134.24,3.69a1.21,1.21,0,0,0,1.25-1.25,1.18,1.18,0,0,0-1.25-1.22A1.17,1.17,0,0,0,133,2.44,1.19,1.19,0,0,0,134.24,3.69Z"/><path class="cls-1" d="M124.68,15.89c-1.69-.12-2.15-.41-2.15-1.46v-8h2.85V5.57h-3.07a5.11,5.11,0,0,1-.44-1.88c0-1.49.92-2,2.17-2a6.67,6.67,0,0,1,1.51.2l.34-1.73A3.41,3.41,0,0,0,124.82,0c-2.54,0-4.15,2.1-4.15,5.42v.15h-1.76v.85h1.76v8c0,1.05-.37,1.39-1.76,1.46v.61h5.77Z"/><path class="cls-1" d="M208.83,13.91,205.71,10l2.66-2.49a4.34,4.34,0,0,1,2.74-1.36V5.57H207v.61c1.14,0,1.17.51.49,1.19l-1.76,1.69a8.42,8.42,0,0,1-1.59,1.27V0l-3.61,1v.51c1.44.07,1.76.41,1.76,1.46V14.43c0,1.05-.37,1.39-1.76,1.46v.61h5.27v-.61c-1.34-.07-1.66-.41-1.66-1.46V10.76l4.44,5.74h3v-.61C210.4,15.62,210.08,15.43,208.83,13.91Z"/><path class="cls-1" d="M127.82,8.13V13.3c0,2.18,1.05,3.49,3,3.49,1.47,0,2.55-.73,3.59-2.29v2.2l3.52-.69V15.5c-1.39-.07-1.66-.22-1.66-1.78V5.17l-3.64.66v.52c1.37.07,1.78.22,1.78,1.78v5.44a3.47,3.47,0,0,1-2.76,1.73c-1.24,0-2-.63-2-2.07V5.17l-3.52.66v.52C127.51,6.42,127.82,6.57,127.82,8.13Z"/><path class="cls-1" d="M197.09,2.76a1.23,1.23,0,0,0,1.27-1.27,1.27,1.27,0,0,0-2.54,0A1.23,1.23,0,0,0,197.09,2.76Z"/><path class="cls-1" d="M193.11,15.89c-1.43-.07-1.78-.41-1.78-1.46v-8h3c1.44,0,1.79.42,1.79,1.46v6.55c0,1.05-.37,1.39-1.76,1.46v.61h5.27v-.61c-1.34-.07-1.66-.41-1.66-1.46V5.17l-3.25.4h-3.66a5.25,5.25,0,0,1-.43-1.88c0-1.54.82-2,2.07-2a6.25,6.25,0,0,1,1.46.2l.35-1.73A3.28,3.28,0,0,0,193.51,0c-2.57,0-4,2.1-4,5.42v.15h-1.76v.85h1.76v8c0,1.05-.37,1.39-1.76,1.46v.61h5.39Z"/><path class="cls-1" d="M144.67,15.89c-1.69-.12-2.15-.44-2.15-1.46V8.13a4,4,0,0,1,2.32-1.08,3.36,3.36,0,0,1,1.36.3l.37-2a3.36,3.36,0,0,0-1-.2c-1.34,0-2.3,1-3,2.25V5.17l-3.61,1v.51c1.41.08,1.75.44,1.75,1.47v6.3c0,1-.36,1.39-1.75,1.46v.61h5.76Z"/><path class="cls-1" d="M7.15,15.82c-1.86-.1-2.34-.76-2.34-2.15V9.08h7.57v4.59c0,1.39-.52,2.05-2.37,2.15v.68h6.76v-.68c-1.86-.1-2.35-.76-2.35-2.15V3.81c0-1.39.49-2,2.35-2.15V1H10v.68c1.85.1,2.37.76,2.37,2.15V8.1H4.81V3.81c0-1.39.48-2,2.34-2.15V1H.39v.68c1.85.1,2.37.76,2.37,2.15v9.86c0,1.39-.52,2.05-2.37,2.15v.68H7.15Z"/><path class="cls-1" d="M174.47,15.89c-1.69-.12-2.15-.44-2.15-1.46V8.13a4,4,0,0,1,2.32-1.08,3.44,3.44,0,0,1,1.37.3l.36-2a3.36,3.36,0,0,0-1.05-.2c-1.34,0-2.29,1-3,2.25V5.17l-3.61,1v.51c1.41.08,1.75.44,1.75,1.47v6.3c0,1-.36,1.39-1.75,1.46v.61h5.76Z"/><path class="cls-1" d="M166.19,11.77c0-1.27.32-1.84,1.69-1.91V9.18H162v.68c1.73.07,2.17.64,2.17,1.91v3.29a4.79,4.79,0,0,1-3,.88c-4.18,0-5.86-3.25-5.86-7.54,0-3.91,1.9-6.74,5.83-6.74,2.76,0,4.13,1.2,4.3,3.91h.68V1.66a9.62,9.62,0,0,0-4.76-1,8,8,0,0,0-8.45,8.4c0,4.69,2.79,7.71,7.77,7.71a9,9,0,0,0,5.51-1.56Z"/><path class="cls-1" d="M92.51,16.7,96,16V15.5c-1.39-.07-1.66-.22-1.66-1.78V5.17l-3.64.66v.52c1.37.07,1.79.22,1.79,1.78v5.44a3.49,3.49,0,0,1-2.76,1.73c-1.25,0-2-.63-2-2.07V5.17l-3.51.66v.52c1.34.07,1.66.22,1.66,1.78V13.3c0,2.18,1,3.49,3,3.49,1.46,0,2.54-.73,3.59-2.29Z"/><path class="cls-1" d="M45.11,15.89c-1.45-.07-1.79-.41-1.79-1.46V8.57a3.57,3.57,0,0,1,2.86-1.91,1.81,1.81,0,0,1,2,2.08v5.69c0,1.05-.37,1.39-1.76,1.46v.61h5.27v-.61C50.4,15.82,50,15.48,50,14.43V8.67c0-2.18-1-3.5-3-3.5-1.49,0-2.61.76-3.66,2.42h0V0L39.71,1v.51c1.44.07,1.76.41,1.76,1.46V14.43c0,1.05-.37,1.39-1.76,1.46v.61h5.4Z"/><path class="cls-1" d="M34.39,16.79c2.71,0,4.13-2.22,4.44-4.46h-.58C37.54,14.3,36.34,15,35,15c-2.46,0-3.66-2.19-3.66-4.51S32.32,6,34.37,6C36,6,36.44,7.47,36.44,9h2.05a3.53,3.53,0,0,0-3.81-3.79c-3.19,0-5.12,2.71-5.12,6.16S31.29,16.79,34.39,16.79Z"/><path class="cls-1" d="M183.42,14.94v.22c0,1.29.93,1.54,1.72,1.54a2.38,2.38,0,0,0,1.58-.61v-.52h-.59c-.63,0-.85-.24-.85-.9V8.47c0-2.29-1.37-3.3-3.71-3.3s-3.9,1.35-4,3.5h1.85C179.42,7,180,6,181.47,6s1.95.9,1.95,2.56v1.59l-1.75.2c-2.79.31-4.71,1.09-4.71,3.51a2.82,2.82,0,0,0,3,2.95A4,4,0,0,0,183.42,14.94Zm-4.56-1.54c0-1.56,1.22-2.07,3-2.27l1.58-.17v2.39c0,1.42-1.75,2.08-2.68,2.08A1.82,1.82,0,0,1,178.86,13.4Z"/><path class="cls-1" d="M22.46,16.79c3.22,0,5.29-2.58,5.29-6s-1.88-5.57-4.9-5.57c-3.23,0-5.32,2.59-5.32,6.06S19.4,16.79,22.46,16.79ZM22.55,6c2,0,3.05,2.15,3.05,5.1,0,2.71-.66,4.81-2.85,4.81-2,0-3.08-2.15-3.08-5.1C19.67,8.13,20.33,6,22.55,6Z"/><path class="cls-1" d="M77.42,15.89c-1.44-.07-1.78-.41-1.78-1.46V8.57a3.57,3.57,0,0,1,2.85-1.91c1.25,0,2,.64,2,2.08v5.69c0,1.05-.36,1.39-1.76,1.46v.61H84v-.61c-1.27-.07-1.66-.41-1.66-1.46V8.67c0-2.18-1-3.5-3-3.5-1.49,0-2.62.76-3.67,2.42h0V0L72,1v.51c1.44.07,1.76.41,1.76,1.46V14.43c0,1.05-.37,1.39-1.76,1.46v.61h5.39Z"/><path class="cls-1" d="M107.93,16.79c2.83,0,4.32-2.22,4.64-4.46H112c-.7,1.95-1.87,2.68-3.41,2.68-2.47,0-3.71-2.39-3.71-5V9.93h7.32c0-2.63-1.27-4.76-4.08-4.76-3.27,0-4.9,3-4.9,6.06C103.2,14.55,104.83,16.79,107.93,16.79ZM107.64,6C109.2,6,110,7.52,110,9.08h-5C105.2,7.42,106.15,6,107.64,6Z"/><path class="cls-1" d="M60.31,13.16c0-1.59-1.34-2.35-2.85-3l-.66-.29c-1.15-.52-2.18-1-2.18-2S55.19,6,56.7,6c2.07,0,2.24,1.25,2.37,2.69h.63V5.74a6.63,6.63,0,0,0-2.88-.57C54.67,5.17,53,6.3,53,8.42c0,1.51,1.17,2.44,2.64,3.1l.66.29c1.2.54,2.27,1,2.27,2.08,0,1.36-.68,2.07-2.3,2.07-2.14,0-2.58-1-2.63-2.66H53v2.83a6.87,6.87,0,0,0,3.18.66C58.72,16.79,60.31,15.35,60.31,13.16Z"/><path class="cls-1" d="M102.22,15.89c-1.34-.07-1.66-.41-1.66-1.46V0L97,1v.51c1.44.07,1.76.41,1.76,1.46V14.43c0,1.05-.37,1.39-1.76,1.46v.61h5.27Z"/><path class="cls-1" d="M66.75,16.79c2.71,0,4.13-2.22,4.45-4.46h-.59c-.71,2-1.9,2.68-3.29,2.68-2.47,0-3.67-2.19-3.67-4.51S64.68,6,66.73,6C68.37,6,68.8,7.47,68.8,9h2.06a3.54,3.54,0,0,0-3.81-3.79c-3.2,0-5.13,2.71-5.13,6.16S63.65,16.79,66.75,16.79Z"/></g></g></svg>